<svg id="Capa_1" enable-background="new 0 0 512.001 512.001" height="512" viewBox="0 0 512.001 512.001" width="512" xmlns="http://www.w3.org/2000/svg"><g><path d="m256 255.703h-127.93v71.94l127.93-2.61 12.765-34.665z" fill="#8276e3"/><path d="m512 255.703v64.12l-256 5.21v-69.33z" fill="#685eb5"/><path d="m95.896 255.704h-95.896v63.983l95.896 7.977z" fill="#8276e3"/><path d="m268.765 382.139-12.765-62.456-64.05-.04c-17.65-.01-31.95-14.32-31.95-31.97-.15-17.943-14.913-32.033-31.93-31.97h-32.17c-17.63.04-31.9 14.34-31.9 31.97v.02c0 17.64-14.29 31.95-31.93 31.97l-32.07.02v192.317h256z" fill="#524a8f"/><path d="m512 319.823v192.177h-256v-192.317z" fill="#342c6e"/><path d="m60.25 370.184h30v30h-30z" fill="#ffeb00"/><path d="m120.5 370.184h90.25v30h-90.25z" fill="#9bcfff"/><path d="m256 370.182 8.238 15.001-8.238 14.999h-14.997v-30z" fill="#ff7fab"/><path d="m256 370.182h15.003v30h-15.003z" fill="#ff5b93"/><path d="m301.25 370.184h90.25v30h-90.25z" fill="#32a7ff"/><path d="m421.75 370.184h30v30h-30z" fill="#fb0"/><path d="m60.25 430.293h90.25v30h-90.25z" fill="#ff7fab"/><path d="m361.5 430.293h90.25v30h-90.25z" fill="#fb0"/><path d="m256 430.292 17.658 15.965-17.658 14.035h-75.247v-30z" fill="#0dff92"/><path d="m256 430.292h75.252v30h-75.252z" fill="#2fd498"/><path d="m256 48.051h-15v117.819h15l10.51-61.532z" fill="#2fd498"/><path d="m323.79 89.45v76.42h-30v-76.42c0-6.29-5.11-11.4-11.4-11.4h-11.39v87.82h-15v-117.819h26.39c22.83 0 41.4 18.569 41.4 41.399z" fill="#1c9fad"/><path d="m88.786 166.66h-44.393c-24.478 0-44.393-19.914-44.393-44.392v-29.822c0-24.478 19.915-44.393 44.393-44.393h14.393v-48.053h30zm-44.393-88.606c-7.936 0-14.393 6.456-14.393 14.392v29.821c0 7.936 6.457 14.393 14.393 14.393h14.393v-58.606z" fill="#2fd498"/><path d="m228.092 166.233h-41.839c-22.579 0-40.948-18.369-40.948-40.948s18.369-40.948 40.948-40.948h10.628c-1.876-3.724-5.736-6.284-10.182-6.284h-26.394v-30h26.394c22.824 0 41.393 18.569 41.393 41.393zm-41.839-51.895c-6.037 0-10.948 4.911-10.948 10.948s4.911 10.948 10.948 10.948h11.839v-21.896z" fill="#2fd498"/><path d="m373.336 210.75h-29.393v-30h29.393c7.937 0 14.394-6.457 14.394-14.394v-.124h-11.394c-22.824 0-41.393-18.569-41.393-41.393v-35.392c0-22.824 18.569-41.393 41.393-41.393h41.394v118.303c-.001 24.478-19.916 44.393-44.394 44.393zm3-132.696c-6.282 0-11.393 5.111-11.393 11.393v35.394c0 6.282 5.111 11.393 11.393 11.393h11.394v-58.18z" fill="#1c9fad"/><path d="m470.608 166.233c-22.825 0-41.394-18.569-41.394-41.393v-35.393c0-22.824 18.569-41.393 41.394-41.393 22.824 0 41.393 18.569 41.393 41.393v35.394c0 22.824-18.569 41.392-41.393 41.392zm0-88.179c-6.282 0-11.394 5.111-11.394 11.393v35.394c0 6.282 5.111 11.393 11.394 11.393s11.393-5.111 11.393-11.393v-35.394c0-6.282-5.111-11.393-11.393-11.393z" fill="#1c9fad"/><g fill="#2fd498"><path d="m91.909 210.75h-15.612v-30h15.611c7.937 0 14.393-6.457 14.393-14.394v-117.938h30v117.939c.001 24.478-19.914 44.393-44.392 44.393z"/><path d="m106.302 0h30v30h-30z"/></g></g></svg>